<svg width="1200" height="760" viewBox="0 0 1200 760" fill="none" xmlns="http://www.w3.org/2000/svg">
  <rect width="1200" height="760" rx="24" fill="#F8FAFC"/>
  <rect x="40" y="40" width="1120" height="680" rx="20" fill="#FFFFFF" stroke="#E2E8F0" stroke-width="2"/>
  <rect x="72" y="78" width="300" height="28" rx="8" fill="#0F172A"/>
  <rect x="72" y="126" width="440" height="18" rx="6" fill="#64748B"/>
  <rect x="72" y="178" width="1056" height="170" rx="14" fill="#F1F5F9" stroke="#CBD5E1"/>
  <rect x="104" y="210" width="320" height="20" rx="6" fill="#334155"/>
  <rect x="104" y="246" width="760" height="14" rx="5" fill="#94A3B8"/>
  <rect x="72" y="376" width="1056" height="300" rx="14" fill="#F8FAFC" stroke="#CBD5E1"/>
  <rect x="104" y="410" width="340" height="24" rx="8" fill="#1D4ED8"/>
  <rect x="104" y="458" width="992" height="176" rx="10" fill="#EEF2FF" stroke="#C7D2FE"/>
  <rect x="132" y="494" width="350" height="18" rx="6" fill="#3730A3"/>
  <rect x="132" y="526" width="620" height="14" rx="5" fill="#6366F1"/>
</svg>
