<svg width="1200" height="760" viewBox="0 0 1200 760" fill="none" xmlns="http://www.w3.org/2000/svg">
  <rect width="1200" height="760" rx="24" fill="#F8FAFC"/>
  <rect x="40" y="40" width="1120" height="680" rx="20" fill="#FFFFFF" stroke="#E2E8F0" stroke-width="2"/>
  <rect x="72" y="78" width="280" height="28" rx="8" fill="#0F172A"/>
  <rect x="72" y="126" width="460" height="18" rx="6" fill="#64748B"/>
  <rect x="72" y="178" width="1056" height="220" rx="14" fill="#F8FAFC" stroke="#CBD5E1"/>
  <rect x="104" y="210" width="300" height="20" rx="6" fill="#334155"/>
  <rect x="104" y="246" width="520" height="14" rx="5" fill="#94A3B8"/>
  <rect x="104" y="286" width="920" height="80" rx="10" fill="#EEF2FF" stroke="#C7D2FE"/>
  <rect x="132" y="312" width="240" height="16" rx="5" fill="#4338CA"/>
  <rect x="72" y="426" width="1056" height="250" rx="14" fill="#F1F5F9" stroke="#CBD5E1"/>
  <rect x="104" y="460" width="320" height="24" rx="8" fill="#1D4ED8"/>
  <rect x="104" y="508" width="992" height="136" rx="10" fill="#E2E8F0"/>
  <rect x="132" y="542" width="480" height="16" rx="5" fill="#334155"/>
  <rect x="132" y="572" width="700" height="14" rx="5" fill="#64748B"/>
</svg>
